<svg xmlns="http://www.w3.org/2000/svg" xmlns:xlink="http://www.w3.org/1999/xlink" viewBox="0,0,256,256" width="48px" height="48px" fill-rule="nonzero"><g transform="translate(-21.33333,-21.33333) scale(1.16667,1.16667)"><g fill="none" fill-rule="nonzero" stroke="none" stroke-width="1" stroke-linecap="butt" stroke-linejoin="miter" stroke-miterlimit="10" stroke-dasharray="" stroke-dashoffset="0" font-family="none" font-weight="none" font-size="none" text-anchor="none" style="mix-blend-mode: normal"><g transform="scale(5.33333,5.33333)"><circle cx="24" cy="24" r="20" fill="#ffca28"></circle><path d="M33.5,22h-0.53l0.01,-0.97c0.008,-0.807 -0.301,-1.567 -0.869,-2.141c-0.568,-0.574 -1.324,-0.889 -2.131,-0.889h-4.98v-2.277c0.595,-0.346 1,-0.984 1,-1.723c0,-1.105 -0.895,-2 -2,-2c-1.105,0 -2,0.895 -2,2c0,0.738 0.405,1.376 1,1.723v2.277h-5c-1.654,0 -3,1.346 -3,3v1h-0.5c-0.552,0 -1,0.448 -1,1v4c0,0.552 0.448,1 1,1h0.5v2c0,1.654 1.346,3 3,3h11.89c1.637,0 2.983,-1.332 3,-2.97l0.02,-2.03h0.59c0.552,0 1,-0.448 1,-1v-4c0,-0.552 -0.448,-1 -1,-1zM30.89,30.01c-0.005,0.546 -0.454,0.99 -1,0.99h-11.89c-0.551,0 -1,-0.449 -1,-1v-9c0,-0.551 0.449,-1 1,-1h11.98c0.269,0 0.521,0.105 0.71,0.296c0.189,0.191 0.292,0.445 0.29,0.714z" fill="#ffffff"></path><rect x="19" y="23" width="2" height="3" fill="#ffffff"></rect><rect x="27" y="23" width="2" height="3" fill="#ffffff"></rect><rect x="21" y="27" width="6" height="2" fill="#ffffff"></rect></g></g></g></svg>